<svg version="1.1" id="Layer_1" xmlns="http://www.w3.org/2000/svg" xmlns:xlink="http://www.w3.org/1999/xlink" viewBox="0 0 512 512" xml:space="preserve" width="64px" height="64px" fill="#000000"><g id="SVGRepo_bgCarrier" stroke-width="0"></g><g id="SVGRepo_tracerCarrier" stroke-linecap="round" stroke-linejoin="round"></g><g id="SVGRepo_iconCarrier"> <path style="fill:#8f8f8f;" d="M336.242,241.292V126.206c0-44.239-35.992-80.243-80.231-80.243 c-44.252,0-80.243,36.004-80.243,80.243v115.086h-45.963V126.206C129.806,56.624,186.416,0,256.011,0 c69.582,0,126.193,56.624,126.193,126.206v115.086H336.242z"></path> <rect x="91.789" y="240.068" style="fill:#31b800;" width="328.421" height="271.932"></rect> <path style="fill:#ffd500;" d="M296.369,453.532l-23.863-70.115c16.148-6.532,27.545-22.35,27.545-40.838 c0-24.326-19.72-44.046-44.045-44.046s-44.045,19.72-44.045,44.046c0,18.488,11.397,34.306,27.545,40.838l-23.862,70.115H296.369z"></path> </g></svg>