<svg version="1.1" id="Layer_1" xmlns="http://www.w3.org/2000/svg" xmlns:xlink="http://www.w3.org/1999/xlink" viewBox="0 0 511.998 511.998" xml:space="preserve" width="64px" height="64px" fill="#000000"><g id="SVGRepo_bgCarrier" stroke-width="0"></g><g id="SVGRepo_tracerCarrier" stroke-linecap="round" stroke-linejoin="round"></g><g id="SVGRepo_iconCarrier"> <rect x="98.861" y="135.007" style="fill:#CCCCCC;" width="314.265" height="203.084"></rect> <rect x="198.323" y="134.958" style="fill:#FFFFFF;" width="115" height="203.122"></rect> <g> <rect x="95.217" y="139.195" style="fill:#666666;" width="7.998" height="196.301"></rect> <rect x="134.211" y="139.205" style="fill:#666666;" width="7.998" height="196.301"></rect> <rect x="194.67" y="139.205" style="fill:#666666;" width="7.998" height="196.301"></rect> <rect x="408.782" y="139.195" style="fill:#666666;" width="7.998" height="196.301"></rect> <rect x="369.788" y="139.205" style="fill:#666666;" width="7.998" height="196.301"></rect> <rect x="309.329" y="139.205" style="fill:#666666;" width="7.998" height="196.301"></rect> </g> <polyline style="fill:#CCCCCC;" points="100.576,67.15 256.069,0 411.562,67.15 "></polyline> <g> <rect x="71.825" y="333.99" style="fill:#999999;" width="368.349" height="72.265"></rect> <rect x="71.825" y="67.154" style="fill:#999999;" width="368.349" height="72.265"></rect> </g> <rect x="213.812" y="90.29" style="fill:#CCCCCC;" width="84.372" height="25.968"></rect> <g style="opacity:0.3;"> <rect x="310.126" y="139.418" style="fill:#666666;" width="105.817" height="22.592"></rect> </g> <g style="opacity:0.3;"> <rect x="96.016" y="139.411" transform="matrix(1 0.0024 -0.0024 1 0.3621 -0.357)" style="fill:#666666;" width="105.818" height="22.592"></rect> </g> <g> <path style="fill:#71a4da;" d="M71.968,449.155c5.512-0.914,11.096-1.343,16.683-1.28c6.27-0.604,12.571,0.796,17.995,3.999 c4.15,2.438,6.648,6.937,6.526,11.749c-0.183,6.311-4.394,11.793-10.445,13.596v0.184c7.404,1.498,12.721,8.017,12.7,15.571 c0.085,5.025-2.152,9.808-6.062,12.964c-6.829,4.652-15.087,6.732-23.305,5.87c-4.705,0.02-9.407-0.26-14.076-0.84L71.968,449.155z M83.341,473.948h5.87c7.926,0,12.405-3.735,12.405-9.045c0-5.87-4.479-8.573-11.749-8.573c-2.185-0.07-4.373,0.086-6.526,0.463 C83.341,456.792,83.341,473.948,83.341,473.948z M83.341,502.851c2.013,0.208,4.038,0.298,6.062,0.272 c7.366,0,13.892-2.799,13.892-10.533c0-7.27-6.342-10.253-14.268-10.253h-5.686V502.851z"></path> <path style="fill:#71a4da;" d="M137.99,493.35l-5.406,17.811h-11.837l20.138-62.838h14.636l20.426,62.838H163.63l-5.686-17.811 H137.99z M155.985,484.681l-4.943-15.484c-1.208-3.823-2.231-8.11-3.199-11.749h-0.176c-0.936,3.639-1.864,7.998-2.983,11.749 l-4.822,15.467L155.985,484.681z"></path> <path style="fill:#71a4da;" d="M184.721,511.154v-62.838h13.085l16.219,26.944c4.053,6.771,7.637,13.813,10.725,21.074h0.184 c-0.752-8.39-1.032-16.499-1.032-26.112v-21.906h10.629v62.838h-11.837l-16.412-27.6c-4.161-7.025-7.925-14.277-11.276-21.722 l-0.28,0.096c0.472,8.118,0.552,16.412,0.552,26.76v22.473L184.721,511.154z"></path> <path style="fill:#71a4da;" d="M247.767,448.315h11.373v28.904h0.248c1.495-2.399,3.079-4.663,4.567-6.814l16.412-22.098h14.212 l-21.594,26.76l23.025,36.086h-13.476l-17.811-28.792l-5.599,6.718v22.098h-11.357L247.767,448.315L247.767,448.315z"></path> <path style="fill:#71a4da;" d="M313.517,448.315v62.838h-11.469v-62.838L313.517,448.315L313.517,448.315z"></path> <path style="fill:#71a4da;" d="M326.665,511.154v-62.838h13.053l16.219,26.944c4.053,6.771,7.637,13.813,10.725,21.074h0.184 c-0.752-8.39-1.032-16.499-1.032-26.112v-21.906h10.629v62.838h-11.837l-16.443-27.6c-4.161-7.025-7.925-14.277-11.276-21.722 l-0.28,0.096c0.472,8.118,0.552,16.412,0.552,26.76v22.473L326.665,511.154z"></path> <path style="fill:#71a4da;" d="M440.058,508.267c-6.503,2.293-13.34,3.49-20.234,3.543c-8.994,0.588-17.851-2.434-24.609-8.397 c-6-6.161-9.184-14.53-8.798-23.121c0-19.858,14.164-32.631,34.959-32.631c5.71-0.159,11.39,0.856,16.692,2.983l-2.488,9.229 c-4.505-1.922-9.373-2.844-14.268-2.703c-11.566-1.033-21.78,7.506-22.812,19.073c-0.104,1.16-0.111,2.327-0.021,3.488 c-1.099,11.432,7.278,21.59,18.709,22.688c1.033,0.099,2.073,0.121,3.108,0.065c2.948,0.151,5.896-0.293,8.669-1.304v-15.668 h-11.101v-9.045h22.193L440.058,508.267L440.058,508.267z"></path> </g> </g></svg>