<svg height="64px" width="64px" version="1.1" id="Layer_1" xmlns="http://www.w3.org/2000/svg" xmlns:xlink="http://www.w3.org/1999/xlink" viewBox="0 0 503.467 503.467" xml:space="preserve" fill="#000000"><g id="SVGRepo_bgCarrier" stroke-width="0"></g><g id="SVGRepo_tracerCarrier" stroke-linecap="round" stroke-linejoin="round"></g><g id="SVGRepo_iconCarrier"> <g transform="translate(3 1)"> <path style="fill:#009440;" d="M359.667,310.467c25.6,0,34.133,68.267,34.133,102.4c0,18.773-15.36,34.133-34.133,34.133 s-34.133-15.36-34.133-34.133C325.533,378.733,334.067,310.467,359.667,310.467L359.667,310.467z"></path> <path style="fill:#f7d702;" d="M241.053,170.52c-6.827-5.973-12.8-11.947-17.92-19.627c-2.56-3.413-5.12-7.68-6.827-11.947 c-6.827-12.8-10.24-27.307-10.24-41.813c0-8.533,0.853-17.067,3.413-24.747c11.093-40.107,46.933-69.12,90.453-69.12 c52.053,0,93.867,41.813,93.867,93.867c0,15.36-3.413,29.013-10.24,41.813c-9.387,17.92-23.893,33.28-42.667,41.813 c-12.8,5.973-26.453,9.387-41.813,9.387c-8.533,0-17.067-0.853-24.747-3.413c-1.707-0.853-3.413-0.853-5.12-1.707 C270.067,185.88,259.827,184.173,241.053,170.52 M263.24,96.28c4.267,5.973,11.947,9.387,19.627,9.387 c14.507,0,25.6-11.093,25.6-25.6s-11.093-25.6-25.6-25.6c-14.507,0-25.6,11.093-25.6,25.6 C257.267,86.04,258.973,92.013,263.24,96.28"></path> <g> <path style="fill:#c4c4c4;" d="M69.533,412.867v51.2h51.2h51.2h51.2v-51.2V344.6v-68.267v-68.267v-57.173 c5.12,7.68,11.093,13.653,17.92,19.627c17.92,13.653,29.013,16.213,29.013,16.213c1.707,0.853,3.413,0.853,5.12,1.707 l-0.853,3.413v307.2h-256V106.52H86.6V72.386h119.467l3.413,0.853c-2.56,7.68-3.413,16.213-3.413,24.747 c0,15.36,3.413,29.013,10.24,41.813l-1.707,0.853h-42.667h-51.2h-51.2v68.267v68.267v68.267V412.867z"></path> <path style="fill:#c4c4c4;" d="M496.2,250.733V293.4h-42.667L445,284.867v-25.6h-17.067V242.2h-25.6l-8.533-8.533v-25.6h-25.6 l-26.453-26.453v-0.853c17.92-9.387,33.28-23.893,41.813-41.813l1.707,0.853L496.2,250.733z"></path> </g> <polygon style="fill:#78baf7;" points="52.467,464.067 223.133,464.067 223.133,139.8 52.467,139.8 "></polygon> </g> <path style="fill:#ffca0a;" d="M499.2,503.467H4.267C1.707,503.467,0,501.76,0,499.2c0-2.56,1.707-4.267,4.267-4.267h12.8V106.667 c0-2.56,1.707-4.267,4.267-4.267h64V72.533c0-2.56,1.707-4.267,4.267-4.267h85.333c2.56,0,4.267,1.707,4.267,4.267 c0,2.56-1.707,4.267-4.267,4.267H93.867v29.867c0,2.56-1.707,4.267-4.267,4.267h-64v384h247.467V294.4 c0-2.56,1.707-4.267,4.267-4.267s4.267,1.707,4.267,4.267v200.533h76.8v-42.667c-18.773-2.56-34.133-18.773-34.133-38.4 c0-29.867,6.827-106.667,38.4-106.667s38.4,76.8,38.4,106.667c0,19.627-15.36,35.84-34.133,38.4v42.667H499.2 c2.56,0,4.267,1.707,4.267,4.267C503.467,501.76,501.76,503.467,499.2,503.467z M362.667,315.733 c-19.627,0-29.867,58.027-29.867,98.133c0,16.213,13.653,29.867,29.867,29.867s29.867-13.653,29.867-29.867 C392.533,373.76,382.293,315.733,362.667,315.733z M226.133,469.333c-2.56,0-4.267-1.707-4.267-4.267v-46.933H179.2v46.933 c0,2.56-1.707,4.267-4.267,4.267c-2.56,0-4.267-1.707-4.267-4.267v-46.933H128v46.933c0,2.56-1.707,4.267-4.267,4.267 c-2.56,0-4.267-1.707-4.267-4.267v-46.933H76.8v46.933c0,2.56-1.707,4.267-4.267,4.267c-2.56,0-4.267-1.707-4.267-4.267v-46.933 h-12.8c-2.56,0-4.267-1.707-4.267-4.267c0-2.56,1.707-4.267,4.267-4.267h12.8v-59.733h-12.8c-2.56,0-4.267-1.707-4.267-4.267 c0-2.56,1.707-4.267,4.267-4.267h12.8V281.6h-12.8c-2.56,0-4.267-1.707-4.267-4.267s1.707-4.267,4.267-4.267h12.8v-59.733h-12.8 c-2.56,0-4.267-1.707-4.267-4.267c0-2.56,1.707-4.267,4.267-4.267h12.8v-59.733h-12.8c-2.56,0-4.267-1.707-4.267-4.267 c0-2.56,1.707-4.267,4.267-4.267h132.267c2.56,0,4.267,1.707,4.267,4.267c0,2.56-1.707,4.267-4.267,4.267H179.2V204.8h29.867 c2.56,0,4.267,1.707,4.267,4.267c0,2.56-1.707,4.267-4.267,4.267H179.2v59.733h42.667V268.8c0-2.56,1.707-4.267,4.267-4.267 s4.267,1.707,4.267,4.267v4.267h4.267c2.56,0,4.267,1.707,4.267,4.267s-1.707,4.267-4.267,4.267H230.4v59.733h12.8 c2.56,0,4.267,1.707,4.267,4.267c0,2.56-1.707,4.267-4.267,4.267h-12.8V409.6h12.8c2.56,0,4.267,1.707,4.267,4.267 c0,2.56-1.707,4.267-4.267,4.267h-12.8v46.933C230.4,467.627,228.693,469.333,226.133,469.333z M179.2,409.6h42.667v-59.733H179.2 V409.6z M128,409.6h42.667v-59.733H128V409.6z M76.8,409.6h42.667v-59.733H76.8V409.6z M179.2,341.333h42.667V281.6H179.2V341.333z M128,341.333h42.667V281.6H128V341.333z M76.8,341.333h42.667V281.6H76.8V341.333z M128,273.067h42.667v-59.733H128V273.067z M76.8,273.067h42.667v-59.733H76.8V273.067z M128,204.8h42.667v-59.733H128V204.8z M76.8,204.8h42.667v-59.733H76.8V204.8z M499.2,298.667h-42.667c-0.853,0-2.56-0.853-3.413-0.853l-8.533-8.533c-0.853-0.853-0.853-1.707-0.853-3.413v-21.333h-12.8 c-2.56,0-4.267-1.707-4.267-4.267v-12.8h-21.333c-0.853,0-2.56-0.853-3.413-0.853l-8.533-8.533 c-0.853-0.853-0.853-1.707-0.853-3.413v-21.333H371.2c-0.853,0-2.56-0.853-3.413-0.853l-3.413-3.413 c-1.707-1.707-1.707-4.267,0-5.973c1.707-1.707,4.267-1.707,5.973,0l1.707,1.707h23.893c2.56,0,4.267,1.707,4.267,4.267v23.893 l5.973,5.973h23.893c2.56,0,4.267,1.707,4.267,4.267V256h12.8c2.56,0,4.267,1.707,4.267,4.267v23.893l5.973,5.973h36.693V253.44 l-87.04-87.04c-1.707-1.707-1.707-4.267,0-5.973s4.267-1.707,5.973,0l88.747,88.747c0.853,0.853,0.853,1.707,0.853,3.413v42.667 C503.467,296.96,501.76,298.667,499.2,298.667z M268.8,264.533c-18.773,0-29.867-23.893-29.867-64c0-10.24,0-18.773,0.853-27.307 C217.6,154.453,204.8,126.293,204.8,98.133C204.8,44.373,249.173,0,302.933,0s98.133,44.373,98.133,98.133 s-44.373,98.133-98.133,98.133c-10.24,0-21.333-1.707-30.72-5.12h-0.853l-23.04-12.8c0,6.827-0.853,14.507-0.853,22.187 C247.467,233.813,256,256,268.8,256c21.333,0,21.333-38.4,21.333-38.4c0-2.56,1.707-4.267,4.267-4.267s4.267,1.707,4.267,4.267 C298.667,219.307,298.667,264.533,268.8,264.533z M274.773,183.467c9.387,2.56,18.773,4.267,28.16,4.267 c49.493,0,89.6-40.107,89.6-89.6s-40.107-89.6-89.6-89.6s-89.6,40.107-89.6,89.6c0,23.893,10.24,47.787,27.307,64.853 c3.413-32.427,11.947-52.907,19.627-65.707c0,0,0-0.853-0.853-0.853c-4.267-6.827-5.12-15.36-3.413-23.04 c1.707-7.68,6.827-14.507,13.653-17.92c6.827-4.267,15.36-5.12,23.04-2.56c7.68,1.707,14.507,6.827,17.92,13.653 c8.533,14.507,3.413,32.427-11.093,40.96c-1.707,0.853-4.267,0.853-5.973-1.707c-0.853-1.707-0.853-4.267,1.707-5.973 c10.24-5.973,13.653-18.773,7.68-29.013c-2.56-5.12-7.68-8.533-12.8-10.24c-5.12-1.707-11.093-0.853-16.213,2.56 c-5.12,2.56-8.533,7.68-10.24,12.8c-1.707,5.12-0.853,9.387,0.853,14.507c9.387-11.093,17.92-12.8,18.773-12.8 c2.56-0.853,4.267,0.853,5.12,3.413c0.853,2.56-0.853,4.267-3.413,5.12c-0.853,0-31.573,8.533-37.547,83.627L274.773,183.467z M174.933,110.933h-51.2c-2.56,0-4.267-1.707-4.267-4.267s1.707-4.267,4.267-4.267h51.2c2.56,0,4.267,1.707,4.267,4.267 S177.493,110.933,174.933,110.933z"></path> </g></svg>