<svg version="1.1" id="Capa_1" xmlns="http://www.w3.org/2000/svg" xmlns:xlink="http://www.w3.org/1999/xlink" viewBox="0 0 460 460" xml:space="preserve" width="64px" height="64px" fill="#000000"><g id="SVGRepo_bgCarrier" stroke-width="0"></g><g id="SVGRepo_tracerCarrier" stroke-linecap="round" stroke-linejoin="round"></g><g id="SVGRepo_iconCarrier"> <g id="XMLID_1804_"> <path id="XMLID_1805_" style="fill:#8F8F8F;" d="M443,380c0,27.57-22.43,50-50,50s-50-22.43-50-50v-20h-17v-30h-29v30h-17v20 c0,27.57-22.43,50-50,50v30h230V360h-17V380z"></path> <path id="XMLID_1806_" style="fill:#BFBFBF;" d="M180,380v-20h-17v-30h-29v30h-17v20c0,27.57-22.43,50-50,50s-50-22.43-50-50v-20H0 v100h230v-30C202.43,430,180,407.57,180,380z"></path> <rect id="XMLID_1807_" x="67" y="90" style="fill:#FFAA19;" width="67" height="80"></rect> <rect id="XMLID_1808_" y="90" style="fill:#FFCA2B;" width="67" height="80"></rect> <path id="XMLID_1809_" style="fill:#8F8F8F;" d="M87,380c0,11.046-8.954,20-20,20s-20-8.954-20-20c0-11.046,8.954-20,20-20H17v20 c0,27.57,22.43,50,50,50s50-22.43,50-50v-20H67C78.046,360,87,368.954,87,380z"></path> <rect id="XMLID_1810_" x="29.631" y="170" style="fill:#404040;" width="74.737" height="30"></rect> <polygon id="XMLID_1811_" style="fill:#8F8F8F;" points="89.369,230 82,230 82,290 67,290 67,330 104.37,330 104.37,200 89.369,200 "></polygon> <polygon id="XMLID_1812_" style="fill:#BFBFBF;" points="67,290 52,290 52,230 44.631,230 44.631,200 29.63,200 29.63,330 67,330 "></polygon> <rect id="XMLID_1813_" x="67" style="fill:#404040;" width="37.37" height="90"></rect> <rect id="XMLID_1814_" x="29.63" style="fill:#606060;" width="37.37" height="90"></rect> <rect id="XMLID_1815_" x="44.631" y="200" style="fill:#FFCA2B;" width="44.737" height="30"></rect> <rect id="XMLID_1816_" x="52" y="230" style="fill:#606060;" width="30" height="60"></rect> <rect id="XMLID_1817_" y="330" style="fill:#404040;" width="134" height="30"></rect> <circle id="XMLID_1818_" style="fill:#BFBFBF;" cx="67" cy="380" r="20"></circle> <path id="XMLID_1819_" style="fill:#606060;" d="M250,380c0,11.046-8.954,20-20,20v30c27.57,0,50-22.43,50-50v-20h-50 C241.046,360,250,368.954,250,380z"></path> <path id="XMLID_1820_" style="fill:#8F8F8F;" d="M210,380c0-11.046,8.954-20,20-20h-50v20c0,27.57,22.43,50,50,50v-30 C218.954,400,210,391.046,210,380z"></path> <rect id="XMLID_1821_" x="230" y="90" style="fill:#FFAA19;" width="67" height="80"></rect> <rect id="XMLID_1822_" x="163" y="90" style="fill:#FFCA2B;" width="67" height="80"></rect> <rect id="XMLID_1823_" x="192.631" y="170" style="fill:#404040;" width="74.737" height="30"></rect> <polygon id="XMLID_1824_" style="fill:#8F8F8F;" points="252.369,230 245,230 245,290 230,290 230,330 267.37,330 267.37,200 252.369,200 "></polygon> <polygon id="XMLID_1825_" style="fill:#BFBFBF;" points="230,290 215,290 215,230 207.631,230 207.631,200 192.63,200 192.63,330 230,330 "></polygon> <rect id="XMLID_1826_" x="230" style="fill:#404040;" width="37.37" height="90"></rect> <rect id="XMLID_1827_" x="192.63" style="fill:#606060;" width="37.37" height="90"></rect> <rect id="XMLID_1828_" x="207.631" y="200" style="fill:#FFCA2B;" width="44.737" height="30"></rect> <rect id="XMLID_1829_" x="215" y="230" style="fill:#606060;" width="30" height="60"></rect> <rect id="XMLID_1830_" x="163" y="330" style="fill:#404040;" width="134" height="30"></rect> <circle id="XMLID_1831_" style="fill:#BFBFBF;" cx="230" cy="380" r="20"></circle> <path id="XMLID_1832_" style="fill:#606060;" d="M393,430c27.57,0,50-22.43,50-50v-20h-50c11.046,0,20,8.954,20,20 c0,11.046-8.954,20-20,20s-20-8.954-20-20c0-11.046,8.954-20,20-20h-50v20C343,407.57,365.43,430,393,430z"></path> <rect id="XMLID_1833_" x="355.631" y="170" style="fill:#404040;" width="74.737" height="30"></rect> <polygon id="XMLID_1834_" style="fill:#8F8F8F;" points="415.369,230 408,230 408,290 393,290 393,330 430.37,330 430.37,200 415.369,200 "></polygon> <polygon id="XMLID_1835_" style="fill:#BFBFBF;" points="393,290 378,290 378,230 370.631,230 370.631,200 355.63,200 355.63,330 393,330 "></polygon> <rect id="XMLID_1836_" x="393" style="fill:#404040;" width="37.37" height="90"></rect> <rect id="XMLID_1837_" x="355.63" style="fill:#606060;" width="37.37" height="90"></rect> <rect id="XMLID_1838_" x="370.631" y="200" style="fill:#FFCA2B;" width="44.737" height="30"></rect> <rect id="XMLID_1839_" x="378" y="230" style="fill:#606060;" width="30" height="60"></rect> <rect id="XMLID_1840_" x="393" y="90" style="fill:#FFAA19;" width="67" height="80"></rect> <rect id="XMLID_1841_" x="326" y="90" style="fill:#FFCA2B;" width="67" height="80"></rect> <rect id="XMLID_1842_" x="326" y="330" style="fill:#404040;" width="134" height="30"></rect> <circle id="XMLID_1843_" style="fill:#BFBFBF;" cx="393" cy="380" r="20"></circle> </g> </g></svg>